<?xml version="1.0" encoding="UTF-8" standalone="no"?>
<svg
   xmlns:dc="http://purl.org/dc/elements/1.1/"
   xmlns:cc="http://creativecommons.org/ns#"
   xmlns:rdf="http://www.w3.org/1999/02/22-rdf-syntax-ns#"
   xmlns:svg="http://www.w3.org/2000/svg"
   xmlns="http://www.w3.org/2000/svg"
   xmlns:sodipodi="http://sodipodi.sourceforge.net/DTD/sodipodi-0.dtd"
   xmlns:inkscape="http://www.inkscape.org/namespaces/inkscape"
   id="svg8"
   version="1.1"
   viewBox="0 0 100 50"
   height="50mm"
   width="100mm"
   sodipodi:docname="logo-github-V0.svg"
   inkscape:version="0.92.3 (2405546, 2018-03-11)"
   inkscape:export-filename="/home/manu/Documents/projects/TSwatch/inst/images/logo-github-V0.svg.png"
   inkscape:export-xdpi="162.56"
   inkscape:export-ydpi="162.56">
  <sodipodi:namedview
     pagecolor="#000000"
     bordercolor="#666666"
     borderopacity="1"
     objecttolerance="10"
     gridtolerance="10"
     guidetolerance="10"
     inkscape:pageopacity="1"
     inkscape:pageshadow="2"
     inkscape:window-width="1853"
     inkscape:window-height="1025"
     id="namedview18"
     showgrid="false"
     inkscape:pagecheckerboard="false"
     inkscape:zoom="4.4"
     inkscape:cx="151.02183"
     inkscape:cy="81.225196"
     inkscape:window-x="67"
     inkscape:window-y="27"
     inkscape:window-maximized="1"
     inkscape:current-layer="layer1" />
  <defs
     id="defs2">
    <clipPath
       id="cpOC4yMnw3MTQuNTJ8NDgzLjUyfDg5Ljc0">
      <rect
         id="rect4634"
         height="393.79001"
         width="706.29999"
         y="89.739998"
         x="8.2200003" />
    </clipPath>
    <clipPath
       id="cpNDAuODJ8NzE0LjUyfDQ2My42Mnw4Ni4xMA==">
      <rect
         id="rect20"
         height="377.51999"
         width="673.70001"
         y="86.099998"
         x="40.82" />
    </clipPath>
  </defs>
  <metadata
     id="metadata5">
    <rdf:RDF>
      <cc:Work
         rdf:about="">
        <dc:format>image/svg+xml</dc:format>
        <dc:type
           rdf:resource="http://purl.org/dc/dcmitype/StillImage" />
        <dc:title></dc:title>
      </cc:Work>
    </rdf:RDF>
  </metadata>
  <g
     transform="translate(0,-247)"
     id="layer1">
    <g
       aria-label="TSwatch"
       transform="matrix(0.21475471,0,0,0.21475471,-8.4588139,191.36236)"
       style="font-style:normal;font-weight:normal;font-size:85.33333588px;line-height:1.25;font-family:sans-serif;text-align:center;letter-spacing:0px;word-spacing:0px;text-anchor:middle;fill:#ffffff;fill-opacity:1;stroke:none;stroke-width:1px;stroke-linecap:butt;stroke-linejoin:miter;stroke-opacity:1"
       id="flowRoot3713">
      <path
         d="m 173.26848,349.80801 c 0.93867,0 1.70667,-0.68267 2.13334,-1.536 l -4.77867,-9.728 h -45.39734 l -4.77866,9.728 c 0.42666,0.85333 1.19466,1.536 2.13333,1.536 0.42667,0 0.85333,-0.17067 1.28,-0.34133 5.29067,-8.192 6.912,-8.78934 16.98133,-8.78934 h 1.36534 c 1.36533,0 2.304,0.256 2.304,2.13334 v 51.2 c 0,2.048 -2.13334,2.13333 -4.26667,2.13333 -0.256,0.256 -0.42667,0.768 -0.42667,1.10934 0,0.34133 0.17067,0.68266 0.42667,1.024 h 14.93333 c 0.256,-0.256 0.42667,-0.68267 0.42667,-1.024 0,-0.42667 -0.0853,-0.768 -0.42667,-1.10934 -2.13333,0 -4.26666,-0.0853 -4.26666,-2.13333 v -51.2 c 0,-1.87734 0.93866,-2.13334 2.304,-2.13334 h 1.36533 c 18.34667,0 14.25067,9.13067 18.688,9.13067 z"
         style="font-style:normal;font-variant:normal;font-weight:normal;font-stretch:normal;font-size:85.33333588px;font-family:'Accanthis ADF Std No2';-inkscape-font-specification:'Accanthis ADF Std No2, Normal';font-variant-ligatures:normal;font-variant-caps:normal;font-variant-numeric:normal;font-feature-settings:normal;text-align:center;letter-spacing:0px;writing-mode:lr-tb;text-anchor:middle;fill:#ffffff;fill-opacity:1"
         id="path35" />
      <path
         d="m 197.08581,399.13068 c 11.09334,0 21.16267,-4.94933 21.16267,-16.04267 0,-19.88267 -31.91467,-16.384 -31.91467,-30.976 0,-5.46133 4.864,-12.20267 10.66667,-12.20267 12.11733,0 13.312,8.704 17.664,8.704 1.28,0 2.304,-1.024 2.304,-2.304 0,-5.376 -13.65333,-8.61866 -17.83467,-8.61866 -11.69066,0 -19.79733,5.632 -19.79733,15.872 0,18.432 31.744,15.70133 31.744,31.40267 0,8.53333 -9.38667,12.032 -16.55467,12.032 -9.64266,0 -10.15466,-11.09334 -14.50666,-11.09334 -1.45067,0 -2.64534,1.10934 -2.64534,2.56 0,3.24267 7.85067,10.66667 19.712,10.66667 z"
         style="font-style:normal;font-variant:normal;font-weight:normal;font-stretch:normal;font-size:85.33333588px;font-family:'Accanthis ADF Std No2';-inkscape-font-specification:'Accanthis ADF Std No2, Normal';font-variant-ligatures:normal;font-variant-caps:normal;font-variant-numeric:normal;font-feature-settings:normal;text-align:center;letter-spacing:0px;writing-mode:lr-tb;text-anchor:middle;fill:#ffffff;fill-opacity:1"
         id="path37" />
      <path
         d="m 242.15115,398.27735 h 4.43733 l 8.448,-18.944 9.30134,18.944 h 4.43733 l 16.21333,-35.41334 h 2.13334 c 0.17066,-0.34133 0.34133,-0.768 0.42666,-1.10933 l -0.42666,-1.024 h -11.94667 c -0.256,0.256 -0.42667,0.68266 -0.42667,1.024 0,0.42666 0.0853,0.768 0.42667,1.10933 h 2.304 c 1.45067,0 2.73067,0.512 2.73067,2.304 l -11.94667,26.624 -13.22667,-26.79466 c 0,-1.70667 0.768,-2.04801 1.96267,-2.13334 h 2.304 c 0.34133,-0.34133 0.42667,-0.68267 0.42667,-1.10933 0,-0.34134 -0.17067,-0.768 -0.42667,-1.024 h -14.93333 l -0.42667,1.024 c 0.0853,0.34133 0.256,0.768 0.42667,1.10933 h 2.13333 l 6.656,12.62934 -7.08267,16.29866 -13.22666,-26.79466 c 0,-1.70667 0.68266,-2.04801 1.792,-2.13334 h 2.47466 c 0.34134,-0.34133 0.42667,-0.68267 0.42667,-1.10933 0,-0.34134 -0.17067,-0.768 -0.42667,-1.024 h -14.93333 l -0.42667,1.024 c 0.0853,0.34133 0.256,0.768 0.42667,1.10933 h 2.13333 z"
         style="letter-spacing:-0.61601287px;fill:#ffffff;fill-opacity:1"
         id="path39" />
      <path
         d="m 313.5578,391.02401 c 0,3.15734 -5.80267,5.97334 -8.53334,5.97334 -4.26666,0 -7.33866,-2.90134 -7.33866,-7.33867 0,-2.13333 0.42666,-5.376 3.328,-6.57067 l 12.544,-4.864 z m -9.89867,8.10667 c 3.75467,0 7.68,-1.62133 9.89867,-4.77867 v 0.17067 c 0,2.64533 2.56,4.608 5.12,4.608 2.13333,0 5.03466,-0.768 5.12,-3.41333 -0.42667,0.59733 -1.024,1.19466 -1.792,1.19466 -1.96267,0 -2.048,-3.41333 -2.048,-4.69333 v -21.248 c 0,-9.04534 -7.76534,-11.09334 -15.27467,-11.09334 -3.49867,0 -11.52,2.816 -11.52,7.25334 0,1.28 1.10933,2.47467 2.47467,2.47467 2.98666,0 3.75466,-7.50934 10.41066,-7.50934 5.888,0 7.50934,5.632 7.50934,10.58134 v 3.41333 l -16.98134,6.48533 c -3.584,1.36534 -5.71733,4.096 -5.71733,7.76534 0,6.82666 6.912,8.78933 12.8,8.78933 z"
         style="letter-spacing:-1.36754858px;fill:#ffffff;fill-opacity:1"
         id="path41" />
      <path
         d="m 352.32359,392.56001 c 0,-0.68266 -0.42667,-1.024 -1.024,-1.024 -1.792,0 -2.73067,5.46134 -7.50933,5.46134 -6.22934,0 -6.31467,-7.33867 -6.31467,-12.032 v -22.10134 h 5.46133 l 1.536,-2.13333 h -6.99733 v -9.38667 c 0,-1.36533 0.0853,-3.072 0.85333,-4.26667 -3.84,0.59734 -4.94933,13.65334 -10.32533,13.65334 l -1.536,2.13333 h 4.608 v 23.552 c 0,7.168 3.41333,12.71467 11.09333,12.71467 8.27734,0 10.15467,-6.57067 10.15467,-6.57067 z"
         style="letter-spacing:-1.36754858px;fill:#ffffff;fill-opacity:1"
         id="path43" />
      <path
         d="m 386.7827,392.30401 c 0,-0.512 -0.42666,-1.10933 -1.024,-1.10933 -0.34133,0 -0.85333,0.256 -1.28,0.768 -2.304,2.64533 -5.376,5.03467 -9.04533,5.03467 -10.15467,0 -12.20267,-11.17867 -12.20267,-19.54134 0,-5.376 2.304,-15.36 9.216,-15.36 3.584,0 7.59467,5.20534 10.83734,5.20534 1.36533,0 2.64533,-1.19467 2.64533,-2.56 0,-4.09601 -9.472,-4.86401 -12.11733,-4.86401 -11.008,0 -17.92,9.55734 -17.92,19.62667 0,10.06934 7.168,19.62667 17.92,19.62667 9.216,0 12.97066,-5.97333 12.97066,-6.82667 z"
         style="letter-spacing:-0.12px;fill:#ffffff;fill-opacity:1"
         id="path45" />
      <path
         d="m 402.59736,334.27734 c -4.18133,0 -7.168,4.26667 -11.264,4.26667 h -0.256 l 4.26667,4.26667 v 51.2 c 0,1.62133 -0.768,2.048 -1.792,2.13333 h -2.47467 c -0.34133,0.42667 -0.34133,0.85334 -0.34133,1.19467 0,0.256 0.17066,0.59733 0.34133,0.93867 h 14.93333 c 0.256,-0.256 0.42667,-0.68267 0.42667,-1.024 0,-0.42667 -0.0853,-0.768 -0.42667,-1.10934 h -2.56 c -1.024,0 -1.70666,-0.512 -1.70666,-2.13333 v -22.61333 c 2.47466,-2.47467 7.59466,-7.25334 11.34933,-7.25334 4.352,0 4.77867,5.29067 4.77867,8.53334 v 21.33333 c 0,1.62133 -0.768,2.048 -1.792,2.13333 h -2.47467 c -0.256,0.34134 -0.34133,0.68267 -0.34133,1.024 -0.0853,0.34134 0.0853,0.68267 0.34133,1.10934 h 14.93333 c 0.256,-0.256 0.42667,-0.68267 0.42667,-1.024 0,-0.42667 -0.0853,-0.768 -0.42667,-1.10934 h -2.56 c -1.024,0 -1.70666,-0.512 -1.70666,-2.13333 v -23.46667 c 0,-5.632 -3.66934,-10.66667 -9.64267,-10.66667 -5.80267,0 -9.984,6.40001 -12.88533,10.66667 v -32 c 0,-1.45067 0.34133,-2.90133 0.85333,-4.26667 z"
         style="letter-spacing:-0.12px;fill:#ffffff;fill-opacity:1"
         id="path47" />
    </g>
    <path
       transform="matrix(0.12645998,0,0,0.12645998,2.9022505,236.31248)"
       style="fill:none;fill-opacity:0;stroke:#3288bd;stroke-width:2.23786211;stroke-linecap:butt;stroke-miterlimit:4;stroke-dasharray:none;stroke-opacity:1"
       clip-path="url(#cpNDAuODJ8NzE0LjUyfDQ2My42Mnw4Ni4xMA==)"
       d="m 126.94,136.89 -6.08,1.35 -8.44,2.16 -9.52,3.21 -8.99,4.49 -6.88,5.85 -3.62,7.08 0.01,7.76 3.15,7.46 5.12,5.88 5.63,3.07 4.8,-0.51 3.01,-4.16 0.83,-7.04 -1.2,-8.52 -2.62,-8.21 -3.15,-6.06 -2.73,-2.36 -1.61,2.27 -0.2,7.05 0.97,11.05 1.43,13.55 0.98,14.06 -0.28,12.55 -1.98,9.41 -3.64,5.32 -4.71,1.07 -4.81,-2.53 -3.73,-4.91 -1.56,-5.73 1.33,-5.03 4.32,-3.12 6.74,-0.56 7.93,2.04 7.55,4.15 5.58,5.48 2.36,5.95 -1.46,5.78 -5.09,5.3 -7.81,4.88 -9.06,4.81 -8.55,5.2 -6.42,5.96 -3.1,6.8 0.69,7.32 4.14,7.14 6.57,5.98 7.52,3.89 6.95,1.08 5.09,-1.89 2.48,-4.42 -0.27,-5.88 -2.53,-5.79 -3.85,-4.01 -4.04,-0.7 -3.22,3.59 -1.74,8.1 -0.15,11.96 1.06,14.42 1.49,14.98 1.08,13.5 -0.05,10.25 -1.46,5.82 -2.71,1.08 -3.31,-3.1 -2.95,-5.98 -1.56,-7.13 0.65,-6.49 3.21,-4.35 5.5,-1.24 6.88,2.14 6.9,5.11 5.44,7.19 2.71,8.11 -0.78,7.91 -4.29,6.94 -7.12,5.62 -8.63,4.43 -8.46,3.61 -6.56,3.31 -3.3,3.39 0.67,3.6 4.5,3.62 7.39,3.14 8.8,1.98 8.54,0.16 6.79,-2.04 4.02,-4.09 0.84,-5.38 -2.06,-5.47 -4.11,-4.15 -4.87,-1.53 -4.27,1.98 -2.59,5.85 -0.41,9.42 1.53,12.02 2.69,13 2.86,11.92 2.24,8.73 1.24,3.95 0.33,-1.42 -0.18,-6.22 -0.18,-9.42 0.4,-10.51 1.54,-9.5 3.11,-6.88 4.86,-3.29 6.35,0.57 7.01,4.07 6.45,6.69 4.55,8.05 1.67,8 -1.55,6.71 -4.3,4.67 -5.95,2.48 -6.08,0.67 -4.62,-0.46 -1.78,-0.9 1.93,-0.86 5.82,-0.64 9.1,-0.57 11.09,-0.86 11.35,-1.62 9.88,-2.77 7.05,-4.06 3.56,-5.03 0.15,-5.21 -2.49,-4.27 -3.91,-2.16 -3.89,0.86 -2.58,4.25 -0.32,7.35 2.25,9.5 4.51,10.17 5.97,9.05 6.35,6.22 5.78,2.06 4.55,-2.67 3.18,-7.09 2.14,-10.34 1.75,-11.79 2.18,-11.2 3.34,-8.73 4.9,-4.88 6.36,-0.4 7.22,3.9 7.06,7.25 5.75,9.07 3.51,9.16 0.78,7.69 -1.82,5.14 -3.63,2.16 -4.19,-0.62 -3.25,-2.72 -0.87,-3.88 2.51,-4.11 6.26,-3.64 9.57,-2.82 11.72,-2.03 12.22,-1.62 10.98,-1.7 8.25,-2.16 4.6,-2.69 0.81,-2.88 -2.42,-2.41 -4.43,-1.1 -4.89,0.96 -3.77,3.47 -1.45,5.96 1.51,7.82 4.37,8.53 6.54,7.73 7.6,5.33 7.49,1.67 6.38,-2.65 4.71,-6.79 2.97,-9.96 1.67,-11.49 1.13,-11.07 1.48,-8.71 2.5,-4.82 3.83,-0.11 4.92,4.55 5.33,8.29 4.82,10.43 3.39,10.66 1.31,9.09 -0.91,6.15 -2.74,2.49 -3.62,-1.14 -3.2,-4.11 -1.4,-5.94 1.47,-6.48 4.89,-5.85 8.11,-4.45 10.4,-2.74 11.23,-1.24 10.37,-0.26 7.97,0.14 4.47,0.09 0.56,-0.12 -2.97,-0.15 -5.38,0.27 -6.22,1.27 -5.34,2.75 -3.01,4.44 0.23,5.85 3.63,6.49 6.49,5.97 8.3,4.12 8.76,1.13 7.93,-2.53 6.15,-6.18 3.93,-9.1 1.88,-10.65 0.48,-10.41 0.05,-8.28 0.53,-4.56 1.67,0.1 2.99,4.83 4.02,8.74 4.39,11.08 3.92,11.49 2.7,9.91 1.02,6.76 -0.63,2.63 -1.71,-1.66 -1.76,-5.32 -0.62,-7.72 1.62,-8.54 4.53,-7.83 7.49,-5.95 9.81,-3.45 10.94,-0.94 10.56,1.09 8.62,2.36 5.45,2.84 1.67,2.67 -1.95,2.17 -4.64,1.72 -5.83,1.62 -5.25,2.03 -3.1,2.8 0.19,3.66 3.89,4.14 7.28,3.9 9.7,2.71 10.69,0.57 10.17,-2.2 8.34,-5.16 5.73,-7.68 3,-9.14 0.78,-9.06 -0.5,-7.25 -0.68,-3.9 0.08,0.42 1.46,4.93 2.96,8.76 4.13,11.2 4.58,11.74 4.19,10.29 3.1,7.08 1.66,2.7 0.39,-2.03 -0.21,-6.2 0.16,-9.05 1.53,-10.15 3.64,-9.45 6.06,-7.29 8.18,-4.19 9.49,-0.85 9.5,2.12 8.07,4.23 5.34,5.2 1.81,5.07 -1.78,4.11 -4.65,2.81 -6.18,1.63 -6.06,0.89 -4.3,0.64 -1.28,0.77 2.45,0.96 6.12,0.92 9.01,0.41 10.49,-0.74 10.27,-2.5 8.46,-4.61 5.58,-6.63 2.31,-7.95 -0.63,-8.03 -2.74,-6.65 -3.73,-3.92 -3.56,-0.31 -2.37,3.52 -0.48,6.92 1.6,9.28 3.28,10.16 4,9.17 3.56,6.29 2.13,1.83 0.34,-3.41 -1.08,-8.34 -1.49,-11.86 -0.75,-13.24 0.95,-12.35 3.03,-9.61 4.93,-5.8 6.13,-1.76 6.31,1.77 5.3,4.31 3.19,5.55 0.24,5.43 -3.02,4.16 -5.86,2.12 -7.62,-0.09 -7.81,-1.99 -6.3,-3.17 -3.41,-3.64 0.3,-3.55 4.04,-3.29 7.09,-3.19 8.83,-3.52 8.96,-4.35 7.42,-5.57 4.59,-6.87 1.04,-7.85 -2.44,-8.06 -5.13,-7.18 -6.53,-5.12 -6.49,-2.13 -5.18,1.26 -3.01,4.41 -0.6,6.56 1.52,7.19 2.88,6.04 3.25,3.14 2.67,-1.03 1.45,-5.78 0.06,-10.22 -1.01,-13.5 -1.37,-15 -0.9,-14.43 0.28,-11.96 1.79,-8.08 3.16,-3.57 3.91,0.74 3.69,4.04 2.41,5.82 0.21,5.9 -2.5,4.43 -5.07,1.89 -6.88,-1.11 -7.41,-3.92 -6.42,-6.02 -4,-7.16 -0.63,-7.35 3.06,-6.82 6.28,-5.96 8.4,-5.19 8.93,-4.79 7.74,-4.88 5.08,-5.33 1.47,-5.82 -2.33,-6 -5.51,-5.52 -7.48,-4.21 -7.89,-2.1 -6.79,0.49 -4.52,3.07 -1.65,4.99 1.17,5.73 3.36,4.91 4.49,2.52 4.45,-1.11 3.37,-5.38 1.7,-9.47 -0.03,-12.62 -1.31,-14.13 -1.81,-13.64 -1.49,-11.18 -0.54,-7.14 0.64,-2.32 1.64,2.38 2.07,6.09 1.62,8.21 0.28,8.46 -1.76,6.96 -4.01,4.09 -5.88,0.46 -6.75,-3.15 -6.33,-6.04 -4.58,-7.7 -1.87,-7.98 1.28,-7.13 4.26,-5.66 6.52,-4.16 7.57,-2.98 7.08,-2.2 4.91,-1.74 1.35,-1.42 -2.93,-1.11 -6.96,-0.77 -9.76,-0.29 -10.67,0.48 -9.58,1.64 -6.95,3.12 -3.56,4.57 -0.2,5.43 2.43,5.17 3.98,3.49 4.27,0.57 3.37,-3.08 1.54,-6.71 -0.73,-9.59 -2.87,-11.1 -4.35,-10.85 -4.83,-8.78 -4.36,-5.1 -3.23,-0.42 -1.98,4.4 -1.06,8.44 -0.82,10.88 -1.42,11.32 -2.72,9.76 -4.46,6.6 -6.16,2.49 -7.3,-1.77 -7.44,-5.44 -6.35,-7.86 -4.16,-8.73 -1.27,-8.01 1.63,-6.08 3.89,-3.5 4.94,-0.92 4.46,1.13 2.47,2.4 -0.74,2.85 -4.56,2.68 -8.21,2.17 -10.96,1.72 -12.17,1.6 -11.64,1.96 -9.48,2.74 -6.21,3.6 -2.52,4.15 0.84,3.97 3.2,2.78 4.18,0.64 3.64,-2.17 1.83,-5.16 -0.79,-7.68 -3.51,-9.14 -5.75,-9.09 -7.02,-7.31 -7.17,-3.99 -6.36,0.36 -4.95,4.92 -3.43,8.81 -2.27,11.28 -1.79,11.8 -2.16,10.32 -3.21,7.08 -4.61,2.69 -5.83,-2.04 -6.41,-6.21 -5.99,-9.08 -4.57,-10.2 -2.37,-9.47 0.14,-7.24 2.34,-4.06 3.68,-0.67 3.72,2.3 2.33,4.38 -0.33,5.32 -3.79,5.18 -7.3,4.26 -10.12,2.96 -11.61,1.79 -11.39,1.04 -9.53,0.85 -6.35,1.06 -2.52,1.39 1.23,1.45 4.11,0.95 5.61,-0.24 5.43,-2.05 3.72,-4.18 0.92,-6.14 -2.3,-7.41 -5.2,-7.47 -7.23,-6.09 -8.04,-3.3 -7.62,0.49 -6.2,4.57 -4.26,8.2 -2.35,10.61 -0.97,11.27 -0.44,9.97 -0.82,6.84 -1.86,2.46 -3.16,-2.42 -4.19,-6.84 -4.55,-9.98 -4.04,-11.29 -2.71,-10.62 -0.84,-8.2 1.08,-4.57 2.51,-0.5 2.96,3.28 2.13,6.07 0.07,7.48 -2.91,7.44 -6.15,6.18 -8.96,4.19 -10.7,2.04 -10.91,0.22 -9.5,-0.96 -6.67,-1.44 -2.98,-1.38 0.86,-1.08 4.03,-0.87 5.87,-1.06 6.01,-1.77 4.46,-2.93 1.58,-4.21 -1.97,-5.17 -5.45,-5.33 -8.17,-4.39 -9.64,-2.31 -9.67,0.68 -8.38,4.07 -6.18,7.22 -3.67,9.46 -1.49,10.18 -0.13,9.09 0.2,6.26 -0.42,2.08 -1.67,-2.67 -3.08,-7.09 -4.18,-10.33 -4.6,-11.82 -4.19,-11.26 -3.05,-8.8 -1.49,-4.94 -0.05,-0.39 0.76,3.97 0.57,7.32 -0.76,9.13 -3.01,9.2 -5.75,7.7 -8.33,5.14 -10.15,2.15 -10.71,-0.65 -9.76,-2.78 -7.37,-3.96 -3.93,-4.18 -0.15,-3.65 3.18,-2.76 5.33,-1.96 5.84,-1.56 4.63,-1.67 1.93,-2.17 -1.65,-2.69 -5.43,-2.89 -8.61,-2.42 -10.59,-1.14 -10.97,0.92 -9.79,3.45 -7.36,6.01 -4.35,7.95 -1.43,8.71 0.76,7.91 1.87,5.48 1.81,1.79 0.79,-2.53 -0.83,-6.66 -2.5,-9.8 -3.75,-11.33 -4.21,-10.92 -3.74,-8.51 -2.57,-4.52 -1.14,0.32 0.02,5.08 0.44,8.83 -0.06,10.92 -1.44,11.12 -3.44,9.53 -5.58,6.63 -7.34,3.03 -8.19,-0.59 -7.68,-3.54 -5.72,-5.31 -2.59,-5.69 1.06,-4.8 4.33,-3.16 6.45,-1.42 6.98,-0.13 5.93,0.54 3.59,0.69 0.47,0.71 -2.93,0.87"
       id="polyline57" />
    <g
       id="g870"
       style="font-style:normal;font-weight:normal;font-size:85.33333588px;line-height:1.25;font-family:sans-serif;text-align:center;letter-spacing:0px;word-spacing:0px;text-anchor:middle;fill:none;fill-opacity:1;stroke:#ffffff;stroke-width:1px;stroke-linecap:butt;stroke-linejoin:miter;stroke-opacity:1"
       transform="matrix(0.21475471,0,0,0.21475471,-8.4588139,191.36236)"
       aria-label="TSwatch">
      <path
         id="path858"
         style="font-style:normal;font-variant:normal;font-weight:normal;font-stretch:normal;font-size:85.33333588px;font-family:'Accanthis ADF Std No2';-inkscape-font-specification:'Accanthis ADF Std No2, Normal';font-variant-ligatures:normal;font-variant-caps:normal;font-variant-numeric:normal;font-feature-settings:normal;text-align:center;letter-spacing:0px;writing-mode:lr-tb;text-anchor:middle;fill:none;fill-opacity:1;stroke:none;stroke-opacity:1"
         d="m 197.08581,399.13068 c 11.09334,0 21.16267,-4.94933 21.16267,-16.04267 0,-19.88267 -31.91467,-16.384 -31.91467,-30.976 0,-5.46133 4.864,-12.20267 10.66667,-12.20267 12.11733,0 13.312,8.704 17.664,8.704 1.28,0 2.304,-1.024 2.304,-2.304 0,-5.376 -13.65333,-8.61866 -17.83467,-8.61866 -11.69066,0 -19.79733,5.632 -19.79733,15.872 0,18.432 31.744,15.70133 31.744,31.40267 0,8.53333 -9.38667,12.032 -16.55467,12.032 -9.64266,0 -10.15466,-11.09334 -14.50666,-11.09334 -1.45067,0 -2.64534,1.10934 -2.64534,2.56 0,3.24267 7.85067,10.66667 19.712,10.66667 z" />
      <path
         id="path860"
         style="letter-spacing:-0.61601287px;fill:none;stroke:#ffffff;stroke-opacity:1"
         d="m 242.15115,398.27735 h 4.43733 l 8.448,-18.944 9.30134,18.944 h 4.43733 l 16.21333,-35.41334 h 2.13334 c 0.17066,-0.34133 0.34133,-0.768 0.42666,-1.10933 l -0.42666,-1.024 h -11.94667 c -0.256,0.256 -0.42667,0.68266 -0.42667,1.024 0,0.42666 0.0853,0.768 0.42667,1.10933 h 2.304 c 1.45067,0 2.73067,0.512 2.73067,2.304 l -11.94667,26.624 -13.22667,-26.79466 c 0,-1.70667 0.768,-2.04801 1.96267,-2.13334 h 2.304 c 0.34133,-0.34133 0.42667,-0.68267 0.42667,-1.10933 0,-0.34134 -0.17067,-0.768 -0.42667,-1.024 h -14.93333 l -0.42667,1.024 c 0.0853,0.34133 0.256,0.768 0.42667,1.10933 h 2.13333 l 6.656,12.62934 -7.08267,16.29866 -13.22666,-26.79466 c 0,-1.70667 0.68266,-2.04801 1.792,-2.13334 h 2.47466 c 0.34134,-0.34133 0.42667,-0.68267 0.42667,-1.10933 0,-0.34134 -0.17067,-0.768 -0.42667,-1.024 h -14.93333 l -0.42667,1.024 c 0.0853,0.34133 0.256,0.768 0.42667,1.10933 h 2.13333 z" />
      <path
         id="path862"
         style="letter-spacing:-1.36754858px;fill:none;stroke:#ffffff;stroke-opacity:1"
         d="m 313.5578,391.02401 c 0,3.15734 -5.80267,5.97334 -8.53334,5.97334 -4.26666,0 -7.33866,-2.90134 -7.33866,-7.33867 0,-2.13333 0.42666,-5.376 3.328,-6.57067 l 12.544,-4.864 z m -9.89867,8.10667 c 3.75467,0 7.68,-1.62133 9.89867,-4.77867 v 0.17067 c 0,2.64533 2.56,4.608 5.12,4.608 2.13333,0 5.03466,-0.768 5.12,-3.41333 -0.42667,0.59733 -1.024,1.19466 -1.792,1.19466 -1.96267,0 -2.048,-3.41333 -2.048,-4.69333 v -21.248 c 0,-9.04534 -7.76534,-11.09334 -15.27467,-11.09334 -3.49867,0 -11.52,2.816 -11.52,7.25334 0,1.28 1.10933,2.47467 2.47467,2.47467 2.98666,0 3.75466,-7.50934 10.41066,-7.50934 5.888,0 7.50934,5.632 7.50934,10.58134 v 3.41333 l -16.98134,6.48533 c -3.584,1.36534 -5.71733,4.096 -5.71733,7.76534 0,6.82666 6.912,8.78933 12.8,8.78933 z" />
      <path
         id="path864"
         style="letter-spacing:-1.36754858px;fill:none;stroke:#ffffff;stroke-opacity:1"
         d="m 352.32359,392.56001 c 0,-0.68266 -0.42667,-1.024 -1.024,-1.024 -1.792,0 -2.73067,5.46134 -7.50933,5.46134 -6.22934,0 -6.31467,-7.33867 -6.31467,-12.032 v -22.10134 h 5.46133 l 1.536,-2.13333 h -6.99733 v -9.38667 c 0,-1.36533 0.0853,-3.072 0.85333,-4.26667 -3.84,0.59734 -4.94933,13.65334 -10.32533,13.65334 l -1.536,2.13333 h 4.608 v 23.552 c 0,7.168 3.41333,12.71467 11.09333,12.71467 8.27734,0 10.15467,-6.57067 10.15467,-6.57067 z" />
      <path
         id="path866"
         style="letter-spacing:-0.12px;fill:none;stroke:#ffffff;stroke-opacity:1"
         d="m 386.7827,392.30401 c 0,-0.512 -0.42666,-1.10933 -1.024,-1.10933 -0.34133,0 -0.85333,0.256 -1.28,0.768 -2.304,2.64533 -5.376,5.03467 -9.04533,5.03467 -10.15467,0 -12.20267,-11.17867 -12.20267,-19.54134 0,-5.376 2.304,-15.36 9.216,-15.36 3.584,0 7.59467,5.20534 10.83734,5.20534 1.36533,0 2.64533,-1.19467 2.64533,-2.56 0,-4.09601 -9.472,-4.86401 -12.11733,-4.86401 -11.008,0 -17.92,9.55734 -17.92,19.62667 0,10.06934 7.168,19.62667 17.92,19.62667 9.216,0 12.97066,-5.97333 12.97066,-6.82667 z" />
      <path
         id="path868"
         style="letter-spacing:-0.12px;fill:none;stroke:#ffffff;stroke-opacity:1"
         d="m 402.59736,334.27734 c -4.18133,0 -7.168,4.26667 -11.264,4.26667 h -0.256 l 4.26667,4.26667 v 51.2 c 0,1.62133 -0.768,2.048 -1.792,2.13333 h -2.47467 c -0.34133,0.42667 -0.34133,0.85334 -0.34133,1.19467 0,0.256 0.17066,0.59733 0.34133,0.93867 h 14.93333 c 0.256,-0.256 0.42667,-0.68267 0.42667,-1.024 0,-0.42667 -0.0853,-0.768 -0.42667,-1.10934 h -2.56 c -1.024,0 -1.70666,-0.512 -1.70666,-2.13333 v -22.61333 c 2.47466,-2.47467 7.59466,-7.25334 11.34933,-7.25334 4.352,0 4.77867,5.29067 4.77867,8.53334 v 21.33333 c 0,1.62133 -0.768,2.048 -1.792,2.13333 h -2.47467 c -0.256,0.34134 -0.34133,0.68267 -0.34133,1.024 -0.0853,0.34134 0.0853,0.68267 0.34133,1.10934 h 14.93333 c 0.256,-0.256 0.42667,-0.68267 0.42667,-1.024 0,-0.42667 -0.0853,-0.768 -0.42667,-1.10934 h -2.56 c -1.024,0 -1.70666,-0.512 -1.70666,-2.13333 v -23.46667 c 0,-5.632 -3.66934,-10.66667 -9.64267,-10.66667 -5.80267,0 -9.984,6.40001 -12.88533,10.66667 v -32 c 0,-1.45067 0.34133,-2.90133 0.85333,-4.26667 z" />
    </g>
    <path
       id="path897"
       d="m 126.94,136.89 -6.08,1.35 -8.44,2.16 -9.52,3.21 -8.99,4.49 -6.88,5.85 -3.62,7.08 0.01,7.76 3.15,7.46 5.12,5.88 5.63,3.07 4.8,-0.51 3.01,-4.16 0.83,-7.04 -1.2,-8.52 -2.62,-8.21 -3.15,-6.06 -2.73,-2.36 -1.61,2.27 -0.2,7.05 0.97,11.05 1.43,13.55 0.98,14.06 -0.28,12.55 -1.98,9.41 -3.64,5.32 -4.71,1.07 -4.81,-2.53 -3.73,-4.91 -1.56,-5.73 1.33,-5.03 4.32,-3.12 6.74,-0.56 7.93,2.04 7.55,4.15 5.58,5.48 2.36,5.95 -1.46,5.78 -5.09,5.3 -7.81,4.88 -9.06,4.81 -8.55,5.2 -6.42,5.96 -3.1,6.8 0.69,7.32 4.14,7.14 6.57,5.98 7.52,3.89 6.95,1.08 5.09,-1.89 2.48,-4.42 -0.27,-5.88 -2.53,-5.79 -3.85,-4.01 -4.04,-0.7 -3.22,3.59 -1.74,8.1 -0.15,11.96 1.06,14.42 1.49,14.98 1.08,13.5 -0.05,10.25 -1.46,5.82 -2.71,1.08 -3.31,-3.1 -2.95,-5.98 -1.56,-7.13 0.65,-6.49 3.21,-4.35 5.5,-1.24 6.88,2.14 6.9,5.11 5.44,7.19 2.71,8.11 -0.78,7.91 -4.29,6.94 -7.12,5.62 -8.63,4.43 -8.46,3.61 -6.56,3.31 -3.3,3.39 0.67,3.6 4.5,3.62 7.39,3.14 8.8,1.98 8.54,0.16 6.79,-2.04 4.02,-4.09 0.84,-5.38 -2.06,-5.47 -4.11,-4.15 -4.87,-1.53 -4.27,1.98 -2.59,5.85 -0.41,9.42 1.53,12.02 2.69,13 2.86,11.92 2.24,8.73 1.24,3.95 0.33,-1.42 -0.18,-6.22 -0.18,-9.42 0.4,-10.51 1.54,-9.5 3.11,-6.88 4.86,-3.29 6.35,0.57 7.01,4.07 6.45,6.69 4.55,8.05 1.67,8 -1.55,6.71 -4.3,4.67 -5.95,2.48 -6.08,0.67 -4.62,-0.46 -1.78,-0.9 1.93,-0.86 5.82,-0.64 9.1,-0.57 11.09,-0.86 11.35,-1.62 9.88,-2.77 7.05,-4.06 3.56,-5.03 0.15,-5.21 -2.49,-4.27 -3.91,-2.16 -3.89,0.86 -2.58,4.25 -0.32,7.35 2.25,9.5 4.51,10.17 5.97,9.05 6.35,6.22 5.78,2.06 4.55,-2.67 3.18,-7.09 2.14,-10.34 1.75,-11.79 2.18,-11.2 3.34,-8.73 4.9,-4.88 6.36,-0.4 7.22,3.9 7.06,7.25 5.75,9.07 3.51,9.16 0.78,7.69 -1.82,5.14 -3.63,2.16 -4.19,-0.62 -3.25,-2.72 -0.87,-3.88 2.51,-4.11 6.26,-3.64 9.57,-2.82 11.72,-2.03 12.22,-1.62 10.98,-1.7 8.25,-2.16 4.6,-2.69 0.81,-2.88 -2.42,-2.41 -4.43,-1.1 -4.89,0.96 -3.77,3.47 -1.45,5.96 1.51,7.82 4.37,8.53 6.54,7.73 7.6,5.33 7.49,1.67 6.38,-2.65 4.71,-6.79 2.97,-9.96 1.67,-11.49 1.13,-11.07 1.48,-8.71 2.5,-4.82 3.83,-0.11 4.92,4.55 5.33,8.29 4.82,10.43 3.39,10.66 1.31,9.09 -0.91,6.15 -2.74,2.49 -3.62,-1.14 -3.2,-4.11 -1.4,-5.94 1.47,-6.48 4.89,-5.85 8.11,-4.45 10.4,-2.74 11.23,-1.24 10.37,-0.26 7.97,0.14 4.47,0.09 0.56,-0.12 -2.97,-0.15 -5.38,0.27 -6.22,1.27 -5.34,2.75 -3.01,4.44 0.23,5.85 3.63,6.49 6.49,5.97 8.3,4.12 8.76,1.13 7.93,-2.53 6.15,-6.18 3.93,-9.1 1.88,-10.65 0.48,-10.41 0.05,-8.28 0.53,-4.56 1.67,0.1 2.99,4.83 4.02,8.74 4.39,11.08 3.92,11.49 2.7,9.91 1.02,6.76 -0.63,2.63 -1.71,-1.66 -1.76,-5.32 -0.62,-7.72 1.62,-8.54 4.53,-7.83 7.49,-5.95 9.81,-3.45 10.94,-0.94 10.56,1.09 8.62,2.36 5.45,2.84 1.67,2.67 -1.95,2.17 -4.64,1.72 -5.83,1.62 -5.25,2.03 -3.1,2.8 0.19,3.66 3.89,4.14 7.28,3.9 9.7,2.71 10.69,0.57 10.17,-2.2 8.34,-5.16 5.73,-7.68 3,-9.14 0.78,-9.06 -0.5,-7.25 -0.68,-3.9 0.08,0.42 1.46,4.93 2.96,8.76 4.13,11.2 4.58,11.74 4.19,10.29 3.1,7.08 1.66,2.7 0.39,-2.03 -0.21,-6.2 0.16,-9.05 1.53,-10.15 3.64,-9.45 6.06,-7.29 8.18,-4.19 9.49,-0.85 9.5,2.12 8.07,4.23 5.34,5.2 1.81,5.07 -1.78,4.11 -4.65,2.81 -6.18,1.63 -6.06,0.89 -4.3,0.64 -1.28,0.77 2.45,0.96 6.12,0.92 9.01,0.41 10.49,-0.74 10.27,-2.5 8.46,-4.61 5.58,-6.63 2.31,-7.95 -0.63,-8.03 -2.74,-6.65 -3.73,-3.92 -3.56,-0.31 -2.37,3.52 -0.48,6.92 1.6,9.28 3.28,10.16 4,9.17 3.56,6.29 2.13,1.83 0.34,-3.41 -1.08,-8.34 -1.49,-11.86 -0.75,-13.24 0.95,-12.35 3.03,-9.61 4.93,-5.8 6.13,-1.76 6.31,1.77 5.3,4.31 3.19,5.55 0.24,5.43 -3.02,4.16 -5.86,2.12 -7.62,-0.09 -7.81,-1.99 -6.3,-3.17 -3.41,-3.64 0.3,-3.55 4.04,-3.29 7.09,-3.19 8.83,-3.52 8.96,-4.35 7.42,-5.57 4.59,-6.87 1.04,-7.85 -2.44,-8.06 -5.13,-7.18 -6.53,-5.12 -6.49,-2.13 -5.18,1.26 -3.01,4.41 -0.6,6.56 1.52,7.19 2.88,6.04 3.25,3.14 2.67,-1.03 1.45,-5.78 0.06,-10.22 -1.01,-13.5 -1.37,-15 -0.9,-14.43 0.28,-11.96 1.79,-8.08 3.16,-3.57 3.91,0.74 3.69,4.04 2.41,5.82 0.21,5.9 -2.5,4.43 -5.07,1.89 -6.88,-1.11 -7.41,-3.92 -6.42,-6.02 -4,-7.16 -0.63,-7.35 3.06,-6.82 6.28,-5.96 8.4,-5.19 8.93,-4.79 7.74,-4.88 5.08,-5.33 1.47,-5.82 -2.33,-6 -5.51,-5.52 -7.48,-4.21 -7.89,-2.1 -6.79,0.49 -4.52,3.07 -1.65,4.99 1.17,5.73 3.36,4.91 4.49,2.52 4.45,-1.11 3.37,-5.38 1.7,-9.47 -0.03,-12.62 -1.31,-14.13 -1.81,-13.64 -1.49,-11.18 -0.54,-7.14 0.64,-2.32 1.64,2.38 2.07,6.09 1.62,8.21 0.28,8.46 -1.76,6.96 -4.01,4.09 -5.88,0.46 -6.75,-3.15 -6.33,-6.04 -4.58,-7.7 -1.87,-7.98 1.28,-7.13 4.26,-5.66 6.52,-4.16 7.57,-2.98 7.08,-2.2 4.91,-1.74 1.35,-1.42 -2.93,-1.11 -6.96,-0.77 -9.76,-0.29 -10.67,0.48 -9.58,1.64 -6.95,3.12 -3.56,4.57 -0.2,5.43 2.43,5.17 3.98,3.49 4.27,0.57 3.37,-3.08 1.54,-6.71 -0.73,-9.59 -2.87,-11.1 -4.35,-10.85 -4.83,-8.78 -4.36,-5.1 -3.23,-0.42 -1.98,4.4 -1.06,8.44 -0.82,10.88 -1.42,11.32 -2.72,9.76 -4.46,6.6 -6.16,2.49 -7.3,-1.77 -7.44,-5.44 -6.35,-7.86 -4.16,-8.73 -1.27,-8.01 1.63,-6.08 3.89,-3.5 4.94,-0.92 4.46,1.13 2.47,2.4 -0.74,2.85 -4.56,2.68 -8.21,2.17 -10.96,1.72 -12.17,1.6 -11.64,1.96 -9.48,2.74 -6.21,3.6 -2.52,4.15 0.84,3.97 3.2,2.78 4.18,0.64 3.64,-2.17 1.83,-5.16 -0.79,-7.68 -3.51,-9.14 -5.75,-9.09 -7.02,-7.31 -7.17,-3.99 -6.36,0.36 -4.95,4.92 -3.43,8.81 -2.27,11.28 -1.79,11.8 -2.16,10.32 -3.21,7.08 -4.61,2.69 -5.83,-2.04 -6.41,-6.21 -5.99,-9.08 -4.57,-10.2 -2.37,-9.47 0.14,-7.24 2.34,-4.06 3.68,-0.67 3.72,2.3 2.33,4.38 -0.33,5.32 -3.79,5.18 -7.3,4.26 -10.12,2.96 -11.61,1.79 -11.39,1.04 -9.53,0.85 -6.35,1.06 -2.52,1.39 1.23,1.45 4.11,0.95 5.61,-0.24 5.43,-2.05 3.72,-4.18 0.92,-6.14 -2.3,-7.41 -5.2,-7.47 -7.23,-6.09 -8.04,-3.3 -7.62,0.49 -6.2,4.57 -4.26,8.2 -2.35,10.61 -0.97,11.27 -0.44,9.97 -0.82,6.84 -1.86,2.46 -3.16,-2.42 -4.19,-6.84 -4.55,-9.98 -4.04,-11.29 -2.71,-10.62 -0.84,-8.2 1.08,-4.57 2.51,-0.5 2.96,3.28 2.13,6.07 0.07,7.48 -2.91,7.44 -6.15,6.18 -8.96,4.19 -10.7,2.04 -10.91,0.22 -9.5,-0.96 -6.67,-1.44 -2.98,-1.38 0.86,-1.08 4.03,-0.87 5.87,-1.06 6.01,-1.77 4.46,-2.93 1.58,-4.21 -1.97,-5.17 -5.45,-5.33 -8.17,-4.39 -9.64,-2.31 -9.67,0.68 -8.38,4.07 -6.18,7.22 -3.67,9.46 -1.49,10.18 -0.13,9.09 0.2,6.26 -0.42,2.08 -1.67,-2.67 -3.08,-7.09 -4.18,-10.33 -4.6,-11.82 -4.19,-11.26 -3.05,-8.8 -1.49,-4.94 -0.05,-0.39 0.76,3.97 0.57,7.32 -0.76,9.13 -3.01,9.2 -5.75,7.7 -8.33,5.14 -10.15,2.15 -10.71,-0.65 -9.76,-2.78 -7.37,-3.96 -3.93,-4.18 -0.15,-3.65 3.18,-2.76 5.33,-1.96 5.84,-1.56 4.63,-1.67 1.93,-2.17 -1.65,-2.69 -5.43,-2.89 -8.61,-2.42 -10.59,-1.14 -10.97,0.92 -9.79,3.45 -7.36,6.01 -4.35,7.95 -1.43,8.71 0.76,7.91 1.87,5.48 1.81,1.79 0.79,-2.53 -0.83,-6.66 -2.5,-9.8 -3.75,-11.33 -4.21,-10.92 -3.74,-8.51 -2.57,-4.52 -1.14,0.32 0.02,5.08 0.44,8.83 -0.06,10.92 -1.44,11.12 -3.44,9.53 -5.58,6.63 -7.34,3.03 -8.19,-0.59 -7.68,-3.54 -5.72,-5.31 -2.59,-5.69 1.06,-4.8 4.33,-3.16 6.45,-1.42 6.98,-0.13 5.93,0.54 3.59,0.69 0.47,0.71 -2.93,0.87"
       clip-path="url(#cpNDAuODJ8NzE0LjUyfDQ2My42Mnw4Ni4xMA==)"
       style="fill:none;fill-opacity:0;stroke:#ffffff;stroke-width:2.23786211;stroke-linecap:butt;stroke-miterlimit:4;stroke-dasharray:none;stroke-opacity:1"
       transform="matrix(0.12645998,0,0,0.12645998,2.9022505,236.31248)" />
  </g>
</svg>
