<?xml version="1.0" encoding="UTF-8" standalone="no"?>
<!-- Created with Inkscape (http://www.inkscape.org/) -->

<svg
   xmlns:dc="http://purl.org/dc/elements/1.1/"
   xmlns:cc="http://creativecommons.org/ns#"
   xmlns:rdf="http://www.w3.org/1999/02/22-rdf-syntax-ns#"
   xmlns:svg="http://www.w3.org/2000/svg"
   xmlns="http://www.w3.org/2000/svg"
   xmlns:sodipodi="http://sodipodi.sourceforge.net/DTD/sodipodi-0.dtd"
   xmlns:inkscape="http://www.inkscape.org/namespaces/inkscape"
   width="100mm"
   height="50mm"
   viewBox="0 0 100 50"
   version="1.1"
   id="svg8"
   inkscape:version="0.92.3 (2405546, 2018-03-11)"
   sodipodi:docname="logo_V0.svg">
  <defs
     id="defs2">
    <clipPath
       id="cpOC4yMnw3MTQuNTJ8NDgzLjUyfDg5Ljc0">
      <rect
         x="8.2200003"
         y="89.739998"
         width="706.29999"
         height="393.79001"
         id="rect4634" />
    </clipPath>
  </defs>
  <sodipodi:namedview
     id="base"
     pagecolor="#000000"
     bordercolor="#666666"
     borderopacity="1.0"
     inkscape:pageopacity="0"
     inkscape:pageshadow="2"
     inkscape:zoom="1.31"
     inkscape:cx="285.71429"
     inkscape:cy="164.29012"
     inkscape:document-units="mm"
     inkscape:current-layer="layer1"
     showgrid="false"
     width="110mm"
     inkscape:window-width="1853"
     inkscape:window-height="1025"
     inkscape:window-x="67"
     inkscape:window-y="27"
     inkscape:window-maximized="1" />
  <metadata
     id="metadata5">
    <rdf:RDF>
      <cc:Work
         rdf:about="">
        <dc:format>image/svg+xml</dc:format>
        <dc:type
           rdf:resource="http://purl.org/dc/dcmitype/StillImage" />
        <dc:title></dc:title>
      </cc:Work>
    </rdf:RDF>
  </metadata>
  <g
     inkscape:label="Layer 1"
     inkscape:groupmode="layer"
     id="layer1"
     transform="translate(0,-247)">
    <flowRoot
       xml:space="preserve"
       id="flowRoot3713"
       style="font-style:normal;font-weight:normal;font-size:85.33333588px;line-height:1.25;font-family:sans-serif;text-align:center;letter-spacing:0px;word-spacing:0px;text-anchor:middle;fill:#000000;fill-opacity:1;stroke:none;stroke-width:1px;stroke-linecap:butt;stroke-linejoin:miter;stroke-opacity:1"
       transform="matrix(0.21475471,0,0,0.21475471,-7.9296472,191.36236)"><flowRegion
         id="flowRegion3715"
         style="font-size:85.33333588px;text-align:center;letter-spacing:0px;text-anchor:middle"><rect
           id="rect3717"
           width="386.89279"
           height="110.89481"
           x="81.307159"
           y="322.77713"
           style="font-size:85.33333588px;text-align:center;letter-spacing:0px;text-anchor:middle" /></flowRegion><flowPara
         id="flowPara3719"
         style="font-style:normal;font-variant:normal;font-weight:normal;font-stretch:normal;font-size:85.33333588px;font-family:'Accanthis ADF Std No2';-inkscape-font-specification:'Accanthis ADF Std No2, Normal';font-variant-ligatures:normal;font-variant-caps:normal;font-variant-numeric:normal;font-feature-settings:normal;text-align:center;letter-spacing:0px;writing-mode:lr-tb;text-anchor:middle;fill:#ffffff;fill-opacity:1">TSw<flowSpan
   style="letter-spacing:-1.76999998px"
   id="flowSpan4840">at</flowSpan><flowSpan
   style="letter-spacing:-0.12px"
   id="flowSpan4838">ch</flowSpan></flowPara></flowRoot>    <polyline
       points="87.81,110.15 84.65,116.77 80.69,126.86 76.51,139.34 72.85,152.92 70.53,166.24 70.27,178.03 72.59,187.32 77.60,193.45 85.00,196.18 94.01,195.65 103.51,192.33 112.18,186.94 118.74,180.35 122.12,173.50 121.61,167.28 117.00,162.39 108.58,159.30 97.14,158.20 83.85,158.95 70.15,161.19 57.61,164.39 47.72,167.98 41.70,171.44 40.32,174.39 43.84,176.65 51.88,178.27 63.54,179.48 77.48,180.64 92.10,182.21 105.75,184.62 116.94,188.19 124.50,193.07 127.74,199.18 126.49,206.20 121.10,213.54 112.41,220.47 101.63,226.20 90.13,229.95 79.33,231.16 70.45,229.50 64.38,224.99 61.57,218.01 61.99,209.25 65.17,199.68 70.30,190.43 76.36,182.64 82.32,177.38 87.23,175.45 90.41,177.34 91.53,183.10 90.63,192.35 88.12,204.33 84.70,217.94 81.27,231.93 78.71,244.99 77.82,255.95 79.06,263.88 82.59,268.22 88.09,268.80 94.93,265.86 102.14,260.02 108.61,252.17 113.25,243.38 115.13,234.78 113.63,227.36 108.56,221.91 100.23,218.91 89.37,218.52 77.15,220.56 64.98,224.57 54.34,229.93 46.60,235.93 42.82,241.91 43.63,247.32 49.07,251.79 58.67,255.22 71.41,257.70 85.90,259.51 100.53,261.08 113.65,262.85 123.80,265.20 129.87,268.36 131.24,272.35 127.86,276.97 120.23,281.79 109.37,286.26 96.62,289.74 83.53,291.64 71.58,291.50 62.07,289.11 55.92,284.52 53.57,278.09 54.97,270.48 59.60,262.58 66.57,255.42 74.74,250.00 82.92,247.25 90.02,247.81 95.19,251.97 97.96,259.64 98.26,270.31 96.45,283.09 93.19,296.87 89.37,310.38 85.89,322.36 83.58,331.70 83.03,337.60 84.46,339.59 87.75,337.66 92.40,332.22 97.59,324.07 102.37,314.26 105.74,304.01 106.85,294.52 105.12,286.85 100.38,281.79 92.90,279.81 83.41,280.97 72.96,285.00 62.85,291.34 54.42,299.20 48.88,307.71 47.14,316.03 49.67,323.44 56.44,329.45 66.88,333.84 79.92,336.64 94.16,338.14 107.99,338.77 119.80,339.05 128.22,339.45 132.26,340.31 131.43,341.82 125.84,343.92 116.15,346.37 103.52,348.78 89.39,350.66 75.40,351.53 63.08,351.00 53.75,348.84 48.33,345.11 47.22,340.11 50.31,334.40 56.96,328.76 66.12,324.07 76.50,321.18 86.76,320.83 95.67,323.49 102.27,329.31 106.00,338.08 106.75,349.22 104.83,361.85 100.91,374.84 95.89,386.99 90.77,397.12 86.48,404.24 83.74,407.68 82.96,407.14 84.15,402.79 86.95,395.20 90.68,385.33 94.43,374.35 97.28,363.54 98.42,354.14 97.28,347.19 93.67,343.42 87.80,343.22 80.27,346.57 71.99,353.04 64.10,361.91 57.78,372.22 54.10,382.93 53.88,393.02 57.50,401.67 64.87,408.30 75.36,412.67 87.89,414.84 101.05,415.12 113.31,414.03 123.18,412.18 129.43,410.16 131.24,408.48 128.30,407.50 120.84,407.35 109.62,407.97 95.84,409.09 81.03,410.30 66.87,411.12 54.95,411.15 46.62,410.13 42.76,408.02 43.64,405.08 48.96,401.75 57.84,398.70 69.04,396.59 81.16,396.07 92.84,397.60 102.94,401.43 110.67,407.53 115.59,415.60 117.65,425.09 117.11,435.24 114.54,445.09 110.69,453.67 106.50,459.98 102.90,463.22 100.73,462.84 100.60,458.70 102.73,451.07 106.96,440.65 112.69,428.48 119.08,415.82 125.15,404.00 130.01,394.24 133.02,387.50 133.90,384.42 132.78,385.21 130.15,389.68 126.83,397.24 123.78,407.01 122.02,417.89 122.50,428.72 125.89,438.39 132.53,446.01 142.32,450.96 154.69,453.01 168.64,452.27 182.86,449.16 195.92,444.34 206.43,438.59 213.28,432.69 215.79,427.31 213.78,422.95 207.63,419.86 198.24,418.08 186.89,417.38 175.13,417.40 164.59,417.68 156.79,417.77 152.92,417.34 153.74,416.20 159.44,414.40 169.62,412.22 183.33,410.09 199.25,408.55 215.81,408.17 231.44,409.41 244.73,412.55 254.65,417.62 260.59,424.36 262.49,432.26 260.75,440.52 256.19,448.25 249.95,454.48 243.30,458.34 237.47,459.16 233.47,456.60 231.97,450.70 233.23,441.86 237.04,430.89 242.84,418.86 249.78,406.98 256.90,396.50 263.30,388.56 268.26,384.00 271.35,383.32 272.52,386.61 272.07,393.51 270.63,403.26 269.06,414.82 268.32,426.95 269.31,438.41 272.70,448.05 278.81,454.99 287.57,458.68 298.43,458.96 310.47,456.06 322.52,450.55 333.31,443.22 341.65,435.03 346.58,426.90 347.53,419.69 344.43,414.02 337.70,410.23 328.24,408.39 317.36,408.28 306.59,409.50 297.52,411.49 291.58,413.70 289.86,415.65 292.93,417.02 300.82,417.69 312.95,417.75 328.27,417.50 345.35,417.35 362.57,417.75 378.33,419.13 391.21,421.75 400.19,425.70 404.72,430.79 404.79,436.61 400.93,442.51 394.13,447.73 385.69,451.48 377.05,453.05 369.56,451.95 364.34,447.95 362.12,441.18 363.18,432.13 367.33,421.60 374.01,410.61 382.31,400.32 391.23,391.88 399.72,386.27 406.91,384.21 412.21,386.03 415.40,391.64 416.65,400.52 416.49,411.77 415.71,424.26 415.24,436.69 415.95,447.79 418.53,456.46 423.33,461.87 430.33,463.57 439.13,461.54 448.95,456.15 458.78,448.13 467.53,438.46 474.12,428.24 477.71,418.55 477.81,410.34 474.37,404.29 467.85,400.77 459.14,399.83 449.52,401.19 440.46,404.34 433.42,408.61 429.70,413.30 430.20,417.77 435.34,421.51 445.01,424.26 458.53,425.95 474.77,426.77 492.25,427.06 509.34,427.27 524.41,427.83 536.10,429.06 543.42,431.12 545.94,433.97 543.80,437.31 537.70,440.69 528.81,443.50 518.56,445.14 508.48,445.03 500.02,442.78 494.32,438.26 492.17,431.61 493.83,423.30 499.13,414.09 507.41,404.93 517.70,396.86 528.81,390.87 539.54,387.80 548.85,388.17 556.01,392.15 560.67,399.49 562.95,409.57 563.33,421.43 562.56,433.88 561.56,445.64 561.20,455.49 562.21,462.39 565.06,465.62 569.87,464.89 576.41,460.32 584.08,452.47 592.05,442.25 599.29,430.79 604.81,419.30 607.80,408.95 607.81,400.70 604.80,395.23 599.26,392.88 592.06,393.64 584.38,397.13 577.53,402.71 572.80,409.54 571.24,416.73 573.61,423.44 580.23,429.01 590.96,433.04 605.13,435.44 621.62,436.37 638.90,436.20 655.22,435.40 668.84,434.39 678.24,433.53 682.42,433.00 681.00,432.82 674.36,432.83 663.52,432.77 649.97,432.28 635.47,431.00 621.76,428.54 610.35,424.64 602.38,419.19 598.52,412.28 598.91,404.27 603.24,395.77 610.76,387.57 620.38,380.57 630.84,375.64 640.80,373.45 649.10,374.40 654.86,378.51 657.62,385.43 657.40,394.43 654.66,404.54 650.20,414.59 645.01,423.39 640.10,429.82 636.32,433.00 634.26,432.38 634.17,427.79 635.94,419.53 639.08,408.30 642.86,395.13 646.40,381.27 648.79,368.01 649.27,356.54 647.36,347.83 642.97,342.50 636.43,340.76 628.48,342.45 620.15,347.03 612.64,353.70 607.12,361.46 604.58,369.29 605.66,376.23 610.59,381.51 619.05,384.67 630.30,385.53 643.16,384.24 656.18,381.20 667.84,376.98 676.69,372.23 681.58,367.51 681.83,363.30 677.28,359.86 668.38,357.25 656.09,355.29 641.78,353.68 627.06,351.99 613.57,349.79 602.81,346.73 595.90,342.62 593.53,337.50 595.81,331.65 602.32,325.56 612.13,319.88 623.95,315.34 636.33,312.60 647.79,312.17 657.08,314.32 663.29,318.99 665.98,325.82 665.17,334.11 661.35,342.93 655.37,351.21 648.28,357.85 641.22,361.87 635.19,362.53 630.96,359.45 628.94,352.65 629.15,342.58 631.21,330.08 634.45,316.26 637.98,302.40 640.89,289.77 642.40,279.53 641.99,272.54 639.47,269.33 635.06,269.99 629.35,274.20 623.20,281.25 617.64,290.16 613.72,299.78 612.33,308.95 614.05,316.62 619.05,321.99 627.06,324.59 637.32,324.30 648.73,321.34 659.91,316.21 669.46,309.62 676.08,302.35 678.79,295.15 677.05,288.67 670.86,283.32 660.75,279.30 647.75,276.53 633.29,274.76 618.96,273.54 606.40,272.42 597.04,270.97 591.94,268.91 591.65,266.14 596.16,262.79 604.85,259.19 616.67,255.83 630.19,253.25 643.83,251.98 656.07,252.44 665.59,254.83 671.48,259.11 673.30,264.92 671.13,271.66 665.54,278.48 657.50,284.44 648.21,288.58 638.94,290.10 630.88,288.42 624.91,283.33 621.57,274.99 620.94,263.97 622.70,251.14 626.19,237.64 630.52,224.71 634.73,213.58 637.98,205.28 639.60,200.59 639.28,199.86 637.08,203.04 633.42,209.62 629.05,218.72 624.87,229.23 621.85,239.89 620.83,249.45 622.37,256.88 626.64,261.39 633.40,262.57 641.98,260.37 651.37,255.15 660.36,247.56 667.70,238.44 672.24,228.77 673.15,219.47 669.98,211.33 662.81,204.88 652.26,200.38 639.37,197.78 625.57,196.79 612.43,196.93 601.52,197.66 594.15,198.43 591.23,198.82 593.16,198.59 599.76,197.66 610.29,196.22 623.59,194.57 638.13,193.16 652.29,192.44 664.50,192.81 673.43,194.49 678.18,197.48 678.40,201.51 674.27,206.06 666.51,210.45 656.25,213.87 644.85,215.56 633.72,214.88 624.14,211.42 617.08,205.10 613.15,196.14 612.46,185.13 614.74,172.94 619.29,160.66 625.19,149.45 631.36,140.45 636.77,134.57 640.62,132.42 642.41,134.18 642.08,139.60 639.96,148.01 636.72,158.41 633.23,169.60 630.38,180.30 628.96,189.30 629.49,195.60 632.21,198.48 636.98,197.60 643.33,193.02 650.49,185.22 657.44,175.04 663.04,163.56 666.17,152.00 665.87,141.53 661.57,133.11 653.22,127.36 641.36,124.51 627.09,124.39 611.94,126.53 597.63,130.25 585.79,134.80 577.72,139.46 574.24,143.66 575.52,147.03 581.18,149.38 590.29,150.77 601.57,151.42 613.49,151.68 624.43,151.98 632.91,152.72 637.69,154.18 637.96,156.48 633.43,159.52 624.38,162.95 611.68,166.24 596.57,168.77 580.60,169.89 565.32,169.08 552.13,166.05 542.05,160.76 535.69,153.48 533.13,144.79 533.98,135.51 537.48,126.62 542.58,119.14 548.11,114.04 552.92,112.04 556.07,113.59 556.93,118.73 555.28,127.09 551.34,137.91 545.67,150.13 539.13,162.50 532.66,173.74 527.12,182.68 523.20,188.39 521.23,190.31 521.18,188.28 522.67,182.56 524.99,173.83 527.23,163.07 528.39,151.45 527.57,140.19 524.08,130.41 517.60,123.02 508.22,118.60 496.52,117.35 483.46,119.10 470.29,123.38 458.37,129.44 448.99,136.44 443.16,143.52 441.50,149.90 444.15,155.03 450.68,158.59 460.20,160.52 471.42,161.04 482.79,160.53 492.68,159.48 499.62,158.40 502.45,157.68 500.50,157.58 493.68,158.12 482.47,159.12 467.87,160.22 451.28,160.96 434.30,160.83 418.51,159.39 405.32,156.39 395.77,151.78 390.44,145.77 389.39,138.85 392.15,131.72 397.82,125.23 405.19,120.26 412.89,117.60 419.63,117.83 424.32,121.21 426.28,127.66 425.22,136.73 421.34,147.60 415.20,159.22 407.67,170.40 399.73,179.93 392.32,186.75 386.26,190.08 382.04,189.49 379.81,184.99 379.34,177.02 380.05,166.42 381.13,154.28 381.63,141.87 380.68,130.47 377.60,121.21 372.05,114.94 364.09,112.17 354.22,112.99 343.28,117.11 332.35,123.90 322.63,132.44 315.24,141.73 311.06,150.73 310.63,158.56 314.00,164.54 320.73,168.32 329.91,169.82 340.26,169.29 350.25,167.19 358.35,164.11 363.20,160.68 363.80,157.47 359.65,154.87 350.80,153.09 337.89,152.11 322.01,151.71 304.63,151.52 287.38,151.09 271.87,150.01 259.49,147.99 251.26,144.90 247.68,140.87 248.69,136.26 253.68,131.63 261.56,127.65 270.98,125.03 280.42,124.39 288.49,126.18 294.05,130.56 296.33,137.39 295.07,146.18 290.44,156.16 283.04,166.32 273.81,175.56 263.83,182.81 254.21,187.15 245.92,187.96 239.62,184.99 235.61,178.42 233.76,168.83 233.55,157.15 234.22,144.56 234.87,132.35 234.60,121.78 232.72,113.91 228.83,109.52 222.88,109.00 215.21,112.29 206.50,118.94 197.67,128.12 189.77,138.78 183.81,149.75 180.61,159.89 180.65,168.25 183.95,174.12 190.08,177.15 198.12,177.32 206.85,174.97 214.86,170.65 220.77,165.12 223.38,159.16 221.86,153.51 215.85,148.76 205.53,145.24 191.59,143.06 175.18,142.06 157.79,141.90 141.07,142.14 126.62,142.32 115.80,142.06 109.53,141.14 108.14,139.56 111.41,137.49 118.54,135.31 128.30,133.53 139.22,132.70 149.73,133.32 158.40,135.78 164.05,140.20 165.90,146.45 163.66,154.07 157.52,162.35 148.19,170.38 136.73,177.19 124.45,181.88 112.67,183.72 102.51,182.29 94.73,177.50 89.66,169.64 87.16,159.34 86.71,147.55 87.58,135.42 88.98,124.23 90.17,115.21 90.57,109.43 89.83,107.64 87.81,110.15 "
       style="fill:none;stroke:#ffffff;stroke-width:1.07000005;stroke-linecap:butt;stroke-linejoin:round;stroke-miterlimit:10;stroke-opacity:1"
       clip-path="url(#cpOC4yMnw3MTQuNTJ8NDgzLjUyfDg5Ljc0)"
       id="polyline4641"
       transform="matrix(0.13239162,0,0,0.13239162,3.7657744,234.10905)" />
  </g>
</svg>
