<?xml version="1.0" encoding="UTF-8" standalone="no"?>
<!-- Created with Inkscape (http://www.inkscape.org/) -->

<svg
   xmlns:dc="http://purl.org/dc/elements/1.1/"
   xmlns:cc="http://creativecommons.org/ns#"
   xmlns:rdf="http://www.w3.org/1999/02/22-rdf-syntax-ns#"
   xmlns:svg="http://www.w3.org/2000/svg"
   xmlns="http://www.w3.org/2000/svg"
   xmlns:sodipodi="http://sodipodi.sourceforge.net/DTD/sodipodi-0.dtd"
   xmlns:inkscape="http://www.inkscape.org/namespaces/inkscape"
   width="100mm"
   height="50mm"
   viewBox="0 0 100 50"
   version="1.1"
   id="svg8"
   inkscape:version="0.92.3 (2405546, 2018-03-11)"
   sodipodi:docname="logo_V1.svg">
  <defs
     id="defs2">
    <clipPath
       id="cpOC4yMnw3MTQuNTJ8NDgzLjUyfDg5Ljc0">
      <rect
         x="8.2200003"
         y="89.739998"
         width="706.29999"
         height="393.79001"
         id="rect4634" />
    </clipPath>
    <clipPath
       id="cpNDAuODJ8NzE0LjUyfDQ2My42Mnw4Ni4xMA==">
      <rect
         x="40.82"
         y="86.099998"
         width="673.70001"
         height="377.51999"
         id="rect20" />
    </clipPath>
  </defs>
  <sodipodi:namedview
     id="base"
     pagecolor="#000000"
     bordercolor="#666666"
     borderopacity="1.0"
     inkscape:pageopacity="0"
     inkscape:pageshadow="2"
     inkscape:zoom="2.27"
     inkscape:cx="167.012"
     inkscape:cy="82.324043"
     inkscape:document-units="mm"
     inkscape:current-layer="layer1"
     showgrid="false"
     width="110mm"
     inkscape:window-width="1853"
     inkscape:window-height="1025"
     inkscape:window-x="67"
     inkscape:window-y="27"
     inkscape:window-maximized="1" />
  <metadata
     id="metadata5">
    <rdf:RDF>
      <cc:Work
         rdf:about="">
        <dc:format>image/svg+xml</dc:format>
        <dc:type
           rdf:resource="http://purl.org/dc/dcmitype/StillImage" />
        <dc:title></dc:title>
      </cc:Work>
    </rdf:RDF>
  </metadata>
  <g
     inkscape:label="Layer 1"
     inkscape:groupmode="layer"
     id="layer1"
     transform="translate(0,-247)">
    <flowRoot
       xml:space="preserve"
       id="flowRoot3713"
       style="font-style:normal;font-weight:normal;font-size:85.33333588px;line-height:1.25;font-family:sans-serif;text-align:center;letter-spacing:0px;word-spacing:0px;text-anchor:middle;fill:#000000;fill-opacity:1;stroke:none;stroke-width:1px;stroke-linecap:butt;stroke-linejoin:miter;stroke-opacity:1"
       transform="matrix(0.21475471,0,0,0.21475471,-8.4588139,191.36236)"><flowRegion
         id="flowRegion3715"
         style="font-size:85.33333588px;text-align:center;letter-spacing:0px;text-anchor:middle"><rect
           id="rect3717"
           width="386.89279"
           height="110.89481"
           x="81.307159"
           y="322.77713"
           style="font-size:85.33333588px;text-align:center;letter-spacing:0px;text-anchor:middle" /></flowRegion><flowPara
         id="flowPara3719"
         style="font-style:normal;font-variant:normal;font-weight:normal;font-stretch:normal;font-size:85.33333588px;font-family:'Accanthis ADF Std No2';-inkscape-font-specification:'Accanthis ADF Std No2, Normal';font-variant-ligatures:normal;font-variant-caps:normal;font-variant-numeric:normal;font-feature-settings:normal;text-align:center;letter-spacing:0px;writing-mode:lr-tb;text-anchor:middle;fill:#ffffff;fill-opacity:1">TS<flowSpan
   style="letter-spacing:-0.61601287px"
   id="flowSpan980">w</flowSpan><flowSpan
   id="flowSpan988"
   style="letter-spacing:-1.36754858px">at</flowSpan><flowSpan
   style="letter-spacing:-0.12px"
   id="flowSpan4838">ch</flowSpan></flowPara></flowRoot>    <polyline
       transform="matrix(0.12645998,0,0,0.12645998,2.9022505,236.31248)"
       points="126.94,136.89 120.86,138.24 112.42,140.40 102.90,143.61 93.91,148.10 87.03,153.95 83.41,161.03 83.42,168.79 86.57,176.25 91.69,182.13 97.32,185.20 102.12,184.69 105.13,180.53 105.96,173.49 104.76,164.97 102.14,156.76 98.99,150.70 96.26,148.34 94.65,150.61 94.45,157.66 95.42,168.71 96.85,182.26 97.83,196.32 97.55,208.87 95.57,218.28 91.93,223.60 87.22,224.67 82.41,222.14 78.68,217.23 77.12,211.50 78.45,206.47 82.77,203.35 89.51,202.79 97.44,204.83 104.99,208.98 110.57,214.46 112.93,220.41 111.47,226.19 106.38,231.49 98.57,236.37 89.51,241.18 80.96,246.38 74.54,252.34 71.44,259.14 72.13,266.46 76.27,273.60 82.84,279.58 90.36,283.47 97.31,284.55 102.40,282.66 104.88,278.24 104.61,272.36 102.08,266.57 98.23,262.56 94.19,261.86 90.97,265.45 89.23,273.55 89.08,285.51 90.14,299.93 91.63,314.91 92.71,328.41 92.66,338.66 91.20,344.48 88.49,345.56 85.18,342.46 82.23,336.48 80.67,329.35 81.32,322.86 84.53,318.51 90.03,317.27 96.91,319.41 103.81,324.52 109.25,331.71 111.96,339.82 111.18,347.73 106.89,354.67 99.77,360.29 91.14,364.72 82.68,368.33 76.12,371.64 72.82,375.03 73.49,378.63 77.99,382.25 85.38,385.39 94.18,387.37 102.72,387.53 109.51,385.49 113.53,381.40 114.37,376.02 112.31,370.55 108.20,366.40 103.33,364.87 99.06,366.85 96.47,372.70 96.06,382.12 97.59,394.14 100.28,407.14 103.14,419.06 105.38,427.79 106.62,431.74 106.95,430.32 106.77,424.10 106.59,414.68 106.99,404.17 108.53,394.67 111.64,387.79 116.50,384.50 122.85,385.07 129.86,389.14 136.31,395.83 140.86,403.88 142.53,411.88 140.98,418.59 136.68,423.26 130.73,425.74 124.65,426.41 120.03,425.95 118.25,425.05 120.18,424.19 126.00,423.55 135.10,422.98 146.19,422.12 157.54,420.50 167.42,417.73 174.47,413.67 178.03,408.64 178.18,403.43 175.69,399.16 171.78,397.00 167.89,397.86 165.31,402.11 164.99,409.46 167.24,418.96 171.75,429.13 177.72,438.18 184.07,444.40 189.85,446.46 194.40,443.79 197.58,436.70 199.72,426.36 201.47,414.57 203.65,403.37 206.99,394.64 211.89,389.76 218.25,389.36 225.47,393.26 232.53,400.51 238.28,409.58 241.79,418.74 242.57,426.43 240.75,431.57 237.12,433.73 232.93,433.11 229.68,430.39 228.81,426.51 231.32,422.40 237.58,418.76 247.15,415.94 258.87,413.91 271.09,412.29 282.07,410.59 290.32,408.43 294.92,405.74 295.73,402.86 293.31,400.45 288.88,399.35 283.99,400.31 280.22,403.78 278.77,409.74 280.28,417.56 284.65,426.09 291.19,433.82 298.79,439.15 306.28,440.82 312.66,438.17 317.37,431.38 320.34,421.42 322.01,409.93 323.14,398.86 324.62,390.15 327.12,385.33 330.95,385.22 335.87,389.77 341.20,398.06 346.02,408.49 349.41,419.15 350.72,428.24 349.81,434.39 347.07,436.88 343.45,435.74 340.25,431.63 338.85,425.69 340.32,419.21 345.21,413.36 353.32,408.91 363.72,406.17 374.95,404.93 385.32,404.67 393.29,404.81 397.76,404.90 398.32,404.78 395.35,404.63 389.97,404.90 383.75,406.17 378.41,408.92 375.40,413.36 375.63,419.21 379.26,425.70 385.75,431.67 394.05,435.79 402.81,436.92 410.74,434.39 416.89,428.21 420.82,419.11 422.70,408.46 423.18,398.05 423.23,389.77 423.76,385.21 425.43,385.31 428.42,390.14 432.44,398.88 436.83,409.96 440.75,421.45 443.45,431.36 444.47,438.12 443.84,440.75 442.13,439.09 440.37,433.77 439.75,426.05 441.37,417.51 445.90,409.68 453.39,403.73 463.20,400.28 474.14,399.34 484.70,400.43 493.32,402.79 498.77,405.63 500.44,408.30 498.49,410.47 493.85,412.19 488.02,413.81 482.77,415.84 479.67,418.64 479.86,422.30 483.75,426.44 491.03,430.34 500.73,433.05 511.42,433.62 521.59,431.42 529.93,426.26 535.66,418.58 538.66,409.44 539.44,400.38 538.94,393.13 538.26,389.23 538.34,389.65 539.80,394.58 542.76,403.34 546.89,414.54 551.47,426.28 555.66,436.57 558.76,443.65 560.42,446.35 560.81,444.32 560.60,438.12 560.76,429.07 562.29,418.92 565.93,409.47 571.99,402.18 580.17,397.99 589.66,397.14 599.16,399.26 607.23,403.49 612.57,408.69 614.38,413.76 612.60,417.87 607.95,420.68 601.77,422.31 595.71,423.20 591.41,423.84 590.13,424.61 592.58,425.57 598.70,426.49 607.71,426.90 618.20,426.16 628.47,423.66 636.93,419.05 642.51,412.42 644.82,404.47 644.19,396.44 641.45,389.79 637.72,385.87 634.16,385.56 631.79,389.08 631.31,396.00 632.91,405.28 636.19,415.44 640.19,424.61 643.75,430.90 645.88,432.73 646.22,429.32 645.14,420.98 643.65,409.12 642.90,395.88 643.85,383.53 646.88,373.92 651.81,368.12 657.94,366.36 664.25,368.13 669.55,372.44 672.74,377.99 672.98,383.42 669.96,387.58 664.10,389.70 656.48,389.61 648.67,387.62 642.37,384.45 638.96,380.81 639.26,377.26 643.30,373.97 650.39,370.78 659.22,367.26 668.18,362.91 675.60,357.34 680.19,350.47 681.23,342.62 678.79,334.56 673.66,327.38 667.13,322.26 660.64,320.13 655.46,321.39 652.45,325.80 651.85,332.36 653.37,339.55 656.25,345.59 659.50,348.73 662.17,347.70 663.62,341.92 663.68,331.70 662.67,318.20 661.30,303.20 660.40,288.77 660.68,276.81 662.47,268.73 665.63,265.16 669.54,265.90 673.23,269.94 675.64,275.76 675.85,281.66 673.35,286.09 668.28,287.98 661.40,286.87 653.99,282.95 647.57,276.93 643.57,269.77 642.94,262.42 646.00,255.60 652.28,249.64 660.68,244.45 669.61,239.66 677.35,234.78 682.43,229.45 683.90,223.63 681.57,217.63 676.06,212.11 668.58,207.90 660.69,205.80 653.90,206.29 649.38,209.36 647.73,214.35 648.90,220.08 652.26,224.99 656.75,227.51 661.20,226.40 664.57,221.02 666.27,211.55 666.24,198.93 664.93,184.80 663.12,171.16 661.63,159.98 661.09,152.84 661.73,150.52 663.37,152.90 665.44,158.99 667.06,167.20 667.34,175.66 665.58,182.62 661.57,186.71 655.69,187.17 648.94,184.02 642.61,177.98 638.03,170.28 636.16,162.30 637.44,155.17 641.70,149.51 648.22,145.35 655.79,142.37 662.87,140.17 667.78,138.43 669.13,137.01 666.20,135.90 659.24,135.13 649.48,134.84 638.81,135.32 629.23,136.96 622.28,140.08 618.72,144.65 618.52,150.08 620.95,155.25 624.93,158.74 629.20,159.31 632.57,156.23 634.11,149.52 633.38,139.93 630.51,128.83 626.16,117.98 621.33,109.20 616.97,104.10 613.74,103.68 611.76,108.08 610.70,116.52 609.88,127.40 608.46,138.72 605.74,148.48 601.28,155.08 595.12,157.57 587.82,155.80 580.38,150.36 574.03,142.50 569.87,133.77 568.60,125.76 570.23,119.68 574.12,116.18 579.06,115.26 583.52,116.39 585.99,118.79 585.25,121.64 580.69,124.32 572.48,126.49 561.52,128.21 549.35,129.81 537.71,131.77 528.23,134.51 522.02,138.11 519.50,142.26 520.34,146.23 523.54,149.01 527.72,149.65 531.36,147.48 533.19,142.32 532.40,134.64 528.89,125.50 523.14,116.41 516.12,109.10 508.95,105.11 502.59,105.47 497.64,110.39 494.21,119.20 491.94,130.48 490.15,142.28 487.99,152.60 484.78,159.68 480.17,162.37 474.34,160.33 467.93,154.12 461.94,145.04 457.37,134.84 455.00,125.37 455.14,118.13 457.48,114.07 461.16,113.40 464.88,115.70 467.21,120.08 466.88,125.40 463.09,130.58 455.79,134.84 445.67,137.80 434.06,139.59 422.67,140.63 413.14,141.48 406.79,142.54 404.27,143.93 405.50,145.38 409.61,146.33 415.22,146.09 420.65,144.04 424.37,139.86 425.29,133.72 422.99,126.31 417.79,118.84 410.56,112.75 402.52,109.45 394.90,109.94 388.70,114.51 384.44,122.71 382.09,133.32 381.12,144.59 380.68,154.56 379.86,161.40 378.00,163.86 374.84,161.44 370.65,154.60 366.10,144.62 362.06,133.33 359.35,122.71 358.51,114.51 359.59,109.94 362.10,109.44 365.06,112.72 367.19,118.79 367.26,126.27 364.35,133.71 358.20,139.89 349.24,144.08 338.54,146.12 327.63,146.34 318.13,145.38 311.46,143.94 308.48,142.56 309.34,141.48 313.37,140.61 319.24,139.55 325.25,137.78 329.71,134.85 331.29,130.64 329.32,125.47 323.87,120.14 315.70,115.75 306.06,113.44 296.39,114.12 288.01,118.19 281.83,125.41 278.16,134.87 276.67,145.05 276.54,154.14 276.74,160.40 276.32,162.48 274.65,159.81 271.57,152.72 267.39,142.39 262.79,130.57 258.60,119.31 255.55,110.51 254.06,105.57 254.01,105.18 254.77,109.15 255.34,116.47 254.58,125.60 251.57,134.80 245.82,142.50 237.49,147.64 227.34,149.79 216.63,149.14 206.87,146.36 199.50,142.40 195.57,138.22 195.42,134.57 198.60,131.81 203.93,129.85 209.77,128.29 214.40,126.62 216.33,124.45 214.68,121.76 209.25,118.87 200.64,116.45 190.05,115.31 179.08,116.23 169.29,119.68 161.93,125.69 157.58,133.64 156.15,142.35 156.91,150.26 158.78,155.74 160.59,157.53 161.38,155.00 160.55,148.34 158.05,138.54 154.30,127.21 150.09,116.29 146.35,107.78 143.78,103.26 142.64,103.58 142.66,108.66 143.10,117.49 143.04,128.41 141.60,139.53 138.16,149.06 132.58,155.69 125.24,158.72 117.05,158.13 109.37,154.59 103.65,149.28 101.06,143.59 102.12,138.79 106.45,135.63 112.90,134.21 119.88,134.08 125.81,134.62 129.40,135.31 129.87,136.02 126.94,136.89 "
       style="fill:none;fill-opacity:0;stroke:#3288bd;stroke-width:2.23786213;stroke-linecap:butt;stroke-miterlimit:4;stroke-dasharray:none;stroke-opacity:1"
       clip-path="url(#cpNDAuODJ8NzE0LjUyfDQ2My42Mnw4Ni4xMA==)"
       id="polyline57" />
  </g>
</svg>
